<svg width="639.947509765625px" height="122.021240234375px" xmlns="http://www.w3.org/2000/svg" viewBox="-69.9737548828125 13.9893798828125 639.947509765625 122.021240234375" style="background: rgba(0, 0, 0, 0);" preserveAspectRatio="xMidYMid"><defs><filter id="editing-hole" x="-100%" y="-100%" width="300%" height="300%"><feFlood flood-color="#000" result="black"></feFlood><feMorphology operator="dilate" radius="2" in="SourceGraphic" result="erode"></feMorphology><feGaussianBlur in="erode" stdDeviation="4" result="blur"></feGaussianBlur><feOffset in="blur" dx="2" dy="2" result="offset"></feOffset><feComposite operator="atop" in="offset" in2="black" result="merge"></feComposite><feComposite operator="in" in="merge" in2="SourceGraphic" result="inner-shadow"></feComposite></filter></defs><g filter="url(#editing-hole)"><g transform="translate(21.80375301837921, 104.54781341552734)"><path d="M32.51-26.62L32.51-26.62L32.51-26.62Q32.51-23.94 30.27-22.27L30.27-22.27L30.27-22.27Q28.03-20.61 24.38-20.61L24.38-20.61L24.38-20.61Q22.85-20.61 21.95-21.06L21.95-21.06L21.95-21.06Q22.66-22.72 22.88-24.80L22.88-24.80L22.88-24.80Q23.10-26.88 23.10-27.46L23.10-27.46L23.10-27.46Q23.10-30.14 21.25-30.14L21.25-30.14L21.25-30.14Q19.97-30.14 18.53-28.54L18.53-28.54L18.53-28.54Q17.09-26.94 15.87-24.45L15.87-24.45L15.87-24.45Q13.18-18.69 13.18-12.86L13.18-12.86L13.18-12.86Q13.18-9.66 14.40-8.22L14.40-8.22L14.40-8.22Q15.62-6.78 18.30-6.78L18.30-6.78L18.30-6.78Q22.02-6.78 24.96-9.86L24.96-9.86L24.96-9.86Q25.79-10.82 26.24-11.90L26.24-11.90L26.24-11.90Q28.67-10.62 28.67-7.10L28.67-7.10L28.67-7.10Q28.67-3.52 24.70-1.15L24.70-1.15L24.70-1.15Q20.61 1.28 14.08 1.28L14.08 1.28L14.08 1.28Q1.09 1.28 1.09-12.48L1.09-12.48L1.09-12.48Q1.09-22.53 6.78-28.29L6.78-28.29L6.78-28.29Q12.29-33.92 22.40-33.92L22.40-33.92L22.40-33.92Q32.51-33.92 32.51-26.62ZM48.19 1.28L48.19 1.28L48.19 1.28Q34.11 1.28 34.11-11.97L34.11-11.97L34.11-11.97Q34.11-21.38 39.30-27.46L39.30-27.46L39.30-27.46Q44.80-33.92 54.34-33.92L54.34-33.92L54.34-33.92Q61.25-33.92 64.77-30.72L64.77-30.72L64.77-30.72Q68.29-27.52 68.29-20.80L68.29-20.80L68.29-20.80Q68.29-10.56 62.78-4.61L62.78-4.61L62.78-4.61Q57.41 1.28 48.19 1.28ZM49.86-26.56L49.86-26.56L49.86-26.56Q49.09-24.83 48.48-22.24L48.48-22.24L48.48-22.24Q47.87-19.65 47.10-15.55L47.10-15.55L47.10-15.55Q46.34-11.46 46.34-6.40L46.34-6.40L46.34-6.40Q46.34-4.74 46.88-3.65L46.88-3.65L46.88-3.65Q47.42-2.56 48.90-2.56L48.90-2.56L48.90-2.56Q50.37-2.56 51.30-3.26L51.30-3.26L51.30-3.26Q52.22-3.97 52.93-5.63L52.93-5.63L52.93-5.63Q54.21-8.58 55.23-14.05L55.23-14.05L55.23-14.05Q56.26-19.52 56.35-21.89L56.35-21.89L56.35-21.89Q56.45-24.26 56.45-26.02L56.45-26.02L56.45-26.02Q56.45-27.78 55.94-28.93L55.94-28.93L55.94-28.93Q55.42-30.08 53.98-30.08L53.98-30.08L53.98-30.08Q52.54-30.08 51.58-29.18L51.58-29.18L51.58-29.18Q50.62-28.29 49.86-26.56ZM118.14 1.28L118.14 1.28L118.14 1.28Q110.40 1.28 110.40-4.74L110.40-4.74L110.40-4.74Q110.40-7.36 111.52-12.45L111.52-12.45L111.52-12.45Q112.64-17.54 113.02-19.58L113.02-19.58L113.02-19.58Q113.92-24.26 113.92-25.73L113.92-25.73L113.92-25.73Q113.92-28.99 111.49-28.99L111.49-28.99L111.49-28.99Q109.89-28.99 108.35-26.78L108.35-26.78L108.35-26.78Q106.82-24.58 106.11-20.16L106.11-20.16L102.14 0L89.66 1.28L93.12-16.13L93.12-16.13Q93.70-19.01 94.21-22.27L94.21-22.27L94.21-22.27Q94.72-25.54 94.72-26.05L94.72-26.05L94.72-26.05Q94.72-28.99 92.54-28.99L92.54-28.99L92.54-28.99Q91.07-28.99 89.47-26.82L89.47-26.82L89.47-26.82Q87.87-24.64 86.98-20.16L86.98-20.16L83.07 0L70.46 1.28L77.18-32.64L87.62-33.92L86.53-27.46L86.53-27.46Q88.19-30.91 91.26-32.42L91.26-32.42L91.26-32.42Q94.34-33.92 99.14-33.92L99.14-33.92L99.14-33.92Q101.89-33.92 103.68-32.58L103.68-32.58L103.68-32.58Q105.47-31.23 106.05-29.06L106.05-29.06L106.05-29.06Q107.14-31.30 109.92-32.61L109.92-32.61L109.92-32.61Q112.70-33.92 116.13-33.92L116.13-33.92L116.13-33.92Q119.55-33.92 121.25-33.18L121.25-33.18L121.25-33.18Q122.94-32.45 123.97-31.23L123.97-31.23L123.97-31.23Q125.70-28.99 125.70-24.90L125.70-24.90L125.70-24.90Q125.70-20.86 123.97-12.48L123.97-12.48L123.97-12.48Q123.07-8.38 123.07-6.88L123.07-6.88L123.07-6.88Q123.07-5.38 123.94-4.48L123.94-4.48L123.94-4.48Q124.80-3.58 126.08-3.46L126.08-3.46L126.08-3.46Q125.44-1.28 123.23 0L123.23 0L123.23 0Q121.02 1.28 118.14 1.28ZM177.09 1.28L177.09 1.28L177.09 1.28Q169.34 1.28 169.34-4.74L169.34-4.74L169.34-4.74Q169.34-7.36 170.46-12.45L170.46-12.45L170.46-12.45Q171.58-17.54 171.97-19.58L171.97-19.58L171.97-19.58Q172.86-24.26 172.86-25.73L172.86-25.73L172.86-25.73Q172.86-28.99 170.43-28.99L170.43-28.99L170.43-28.99Q168.83-28.99 167.30-26.78L167.30-26.78L167.30-26.78Q165.76-24.58 165.06-20.16L165.06-20.16L161.09 0L148.61 1.28L152.06-16.13L152.06-16.13Q152.64-19.01 153.15-22.27L153.15-22.27L153.15-22.27Q153.66-25.54 153.66-26.05L153.66-26.05L153.66-26.05Q153.66-28.99 151.49-28.99L151.49-28.99L151.49-28.99Q150.02-28.99 148.42-26.82L148.42-26.82L148.42-26.82Q146.82-24.64 145.92-20.16L145.92-20.16L142.02 0L129.41 1.28L136.13-32.64L146.56-33.92L145.47-27.46L145.47-27.46Q147.14-30.91 150.21-32.42L150.21-32.42L150.21-32.42Q153.28-33.92 158.08-33.92L158.08-33.92L158.08-33.92Q160.83-33.92 162.62-32.58L162.62-32.58L162.62-32.58Q164.42-31.23 164.99-29.06L164.99-29.06L164.99-29.06Q166.08-31.30 168.86-32.61L168.86-32.61L168.86-32.61Q171.65-33.92 175.07-33.92L175.07-33.92L175.07-33.92Q178.50-33.92 180.19-33.18L180.19-33.18L180.19-33.18Q181.89-32.45 182.91-31.23L182.91-31.23L182.91-31.23Q184.64-28.99 184.64-24.90L184.64-24.90L184.64-24.90Q184.64-20.86 182.91-12.48L182.91-12.48L182.91-12.48Q182.02-8.38 182.02-6.88L182.02-6.88L182.02-6.88Q182.02-5.38 182.88-4.48L182.88-4.48L182.88-4.48Q183.74-3.58 185.02-3.46L185.02-3.46L185.02-3.46Q184.38-1.28 182.18 0L182.18 0L182.18 0Q179.97 1.28 177.09 1.28ZM210.50-2.69L210.50-2.69L210.50-2.69Q207.42 1.28 199.81 1.28L199.81 1.28L199.81 1.28Q195.84 1.28 192.96-1.12L192.96-1.12L192.96-1.12Q190.08-3.52 190.08-6.98L190.08-6.98L190.08-6.98Q190.08-8.90 190.27-9.86L190.27-9.86L194.56-32.64L207.55-33.92L202.88-9.22L202.88-9.22Q202.62-7.81 202.62-6.98L202.62-6.98L202.62-6.98Q202.62-3.26 204.86-3.26L204.86-3.26L204.86-3.26Q207.36-3.26 209.15-6.66L209.15-6.66L209.15-6.66Q209.73-7.74 209.98-9.15L209.98-9.15L214.53-32.64L227.14-33.92L222.40-8.96L222.40-8.96Q222.21-8 222.21-6.98L222.21-6.98L222.21-6.98Q222.21-5.95 222.78-4.83L222.78-4.83L222.78-4.83Q223.36-3.71 225.22-3.46L225.22-3.46L225.22-3.46Q224.83-1.92 223.49-0.90L223.49-0.90L223.49-0.90Q220.67 1.28 217.63 1.28L217.63 1.28L217.63 1.28Q214.59 1.28 212.80 0.19L212.80 0.19L212.80 0.19Q211.01-0.90 210.50-2.69ZM257.66 1.28L257.66 1.28L257.66 1.28Q249.92 1.28 249.92-4.74L249.92-4.74L249.92-4.74Q249.98-6.40 250.50-9.22L250.50-9.22L251.65-15.10L251.65-15.10Q253.38-23.42 253.38-25.28L253.38-25.28L253.38-25.28Q253.38-28.99 251.20-28.99L251.20-28.99L251.20-28.99Q247.55-28.99 245.63-19.46L245.63-19.46L241.86 0L228.99 1.28L235.65-32.70L246.14-33.92L245.12-27.65L245.12-27.65Q248.13-33.92 257.34-33.92L257.34-33.92L257.34-33.92Q261.82-33.92 263.71-32.03L263.71-32.03L263.71-32.03Q265.60-30.14 265.60-25.92L265.60-25.92L265.60-25.92Q265.60-21.95 263.55-12.67L263.55-12.67L263.55-12.67Q262.59-8.51 262.59-6.94L262.59-6.94L262.59-6.94Q262.59-5.38 263.46-4.48L263.46-4.48L263.46-4.48Q264.32-3.58 265.60-3.46L265.60-3.46L265.60-3.46Q264.96-1.28 262.75 0L262.75 0L262.75 0Q260.54 1.28 257.66 1.28ZM286.08-3.52L286.08-3.52L286.08-3.52Q284.10 1.28 277.76 1.28L277.76 1.28L277.76 1.28Q274.50 1.28 272.45-0.96L272.45-0.96L272.45-0.96Q270.72-2.94 270.72-4.93L270.72-4.93L270.72-4.93Q270.72-10.11 273.09-20.22L273.09-20.22L275.46-32.64L288.45-33.92L284.54-13.70L284.54-13.70Q283.46-8.96 283.46-7.30L283.46-7.30L283.46-7.30Q283.46-3.65 286.08-3.52ZM276.61-41.54L276.61-41.54L276.61-41.54Q276.61-44.03 278.69-45.38L278.69-45.38L278.69-45.38Q280.77-46.72 283.78-46.72L283.78-46.72L283.78-46.72Q286.78-46.72 288.61-45.38L288.61-45.38L288.61-45.38Q290.43-44.03 290.43-41.54L290.43-41.54L290.43-41.54Q290.43-39.04 288.42-37.76L288.42-37.76L288.42-37.76Q286.40-36.48 283.39-36.48L283.39-36.48L283.39-36.48Q280.38-36.48 278.50-37.76L278.50-37.76L278.50-37.76Q276.61-39.04 276.61-41.54ZM292.54-6.40L292.54-6.40L292.54-6.40Q292.54-8.13 293.44-12.48L293.44-12.48L296.83-29.76L293.06-29.76L293.31-31.68L293.31-31.68Q300.99-33.98 308.42-39.62L308.42-39.62L311.49-39.62L309.95-32.64L314.94-32.64L314.37-29.76L309.44-29.76L306.18-12.48L306.18-12.48Q305.34-8.51 305.34-7.17L305.34-7.17L305.34-7.17Q305.34-4.10 308.03-3.46L308.03-3.46L308.03-3.46Q307.39-1.28 305.09 0L305.09 0L305.09 0Q302.78 1.28 299.52 1.28L299.52 1.28L299.52 1.28Q296.26 1.28 294.40-0.77L294.40-0.77L294.40-0.77Q292.54-2.82 292.54-6.40ZM334.98-7.23L334.98-7.23L334.98-7.23Q331.65-3.78 325.57-3.78L325.57-3.78L325.57-3.78Q317.95-3.78 316.35-9.34L316.35-9.34L316.35-9.34Q315.84-11.01 315.84-12.86L315.84-12.86L315.84-12.86Q315.84-14.72 316.22-16.64L316.22-16.64L319.23-32.64L332.22-33.92L328.70-15.30L328.70-15.30Q328.58-14.46 328.38-13.57L328.38-13.57L328.38-13.57Q328.19-12.67 328.19-11.74L328.19-11.74L328.19-11.74Q328.19-10.82 328.51-10.21L328.51-10.21L328.51-10.21Q328.83-9.60 329.28-9.22L329.28-9.22L329.28-9.22Q330.05-8.70 331.42-8.70L331.42-8.70L331.42-8.70Q332.80-8.70 333.98-10.37L333.98-10.37L333.98-10.37Q335.17-12.03 335.74-14.91L335.74-14.91L339.26-32.64L351.87-33.92L347.07-8.77L347.07-8.77Q344.70 3.52 339.84 8.38L339.84 8.38L339.84 8.38Q337.34 10.88 334.11 11.87L334.11 11.87L334.11 11.87Q330.88 12.86 326.72 12.86L326.72 12.86L326.72 12.86Q320 12.86 316.16 10.75L316.16 10.75L316.16 10.75Q312.32 8.64 312.32 5.12L312.32 5.12L312.32 5.12Q312.32 2.50 314.30 0.99L314.30 0.99L314.30 0.99Q316.29-0.51 319.36-0.51L319.36-0.51L319.36-0.51Q322.05-0.51 324.10 0.64L324.10 0.64L324.10 0.64Q325.31 1.34 325.89 2.24L325.89 2.24L325.89 2.24Q324.42 3.52 324.42 5.63L324.42 5.63L324.42 5.63Q324.42 8.45 326.98 8.45L326.98 8.45L326.98 8.45Q331.20 8.45 333.63-1.28L333.63-1.28L333.63-1.28Q334.34-4.16 334.98-7.23ZM380.10-20.61L393.02-21.76L393.02-21.76Q388.42-11.65 388.42 0.06L388.42 0.06L388.42 0.06Q386.69 1.28 384.16 1.28L384.16 1.28L384.16 1.28Q381.63 1.28 380.03 0.10L380.03 0.10L380.03 0.10Q378.43-1.09 378.11-2.30L378.11-2.30L378.11-2.30Q376.51-0.64 373.92 0.32L373.92 0.32L373.92 0.32Q371.33 1.28 368.58 1.28L368.58 1.28L368.58 1.28Q365.82 1.28 363.42 0.38L363.42 0.38L363.42 0.38Q361.02-0.51 359.17-2.50L359.17-2.50L359.17-2.50Q355.07-6.85 355.07-15.10L355.07-15.10L355.07-15.10Q355.07-27.90 361.92-35.58L361.92-35.58L361.92-35.58Q368.96-43.52 381.44-43.52L381.44-43.52L381.44-43.52Q390.08-43.52 393.15-39.04L393.15-39.04L393.15-39.04Q394.11-37.63 394.11-35.94L394.11-35.94L394.11-35.94Q394.11-34.24 393.38-32.80L393.38-32.80L393.38-32.80Q392.64-31.36 391.49-30.21L391.49-30.21L391.49-30.21Q388.74-27.65 385.34-27.65L385.34-27.65L385.34-27.65Q384-27.65 382.72-28.10L382.72-28.10L382.72-28.10Q382.98-30.02 382.98-32.26L382.98-32.26L382.98-32.26Q382.98-34.50 382.82-35.52L382.82-35.52L382.82-35.52Q382.66-36.54 382.27-37.38L382.27-37.38L382.27-37.38Q381.44-39.10 379.62-39.10L379.62-39.10L379.62-39.10Q377.79-39.10 375.78-37.15L375.78-37.15L375.78-37.15Q373.76-35.20 372.16-32L372.16-32L372.16-32Q368.64-24.83 368.64-16.19L368.64-16.19L368.64-16.19Q368.64-12.22 370.18-9.41L370.18-9.41L370.18-9.41Q371.84-6.34 374.78-6.34L374.78-6.34L374.78-6.34Q375.81-6.34 376.74-6.85L376.74-6.85L376.74-6.85Q377.66-7.36 378.05-7.74L378.05-7.74L380.10-20.61ZM409.41 0L395.46 0L403.58-42.24L417.66-42.24L409.41 0ZM444.03-29.57L444.03-29.57L444.03-29.57Q444.99-31.49 444.99-33.28L444.99-33.28L444.99-33.28Q444.99-35.07 444.80-36.06L444.80-36.06L444.80-36.06Q444.61-37.06 444.16-37.82L444.16-37.82L444.16-37.82Q443.20-39.49 441.28-39.49L441.28-39.49L441.28-39.49Q438.91-39.49 436.99-37.76L436.99-37.76L436.99-37.76Q434.94-35.97 434.94-33.15L434.94-33.15L434.94-33.15Q434.94-31.36 436.19-29.98L436.19-29.98L436.19-29.98Q437.44-28.61 439.36-27.33L439.36-27.33L439.36-27.33Q441.28-26.05 443.46-24.77L443.46-24.77L443.46-24.77Q445.63-23.49 447.55-21.95L447.55-21.95L447.55-21.95Q451.97-18.43 451.97-13.70L451.97-13.70L451.97-13.70Q451.97-10.50 450.27-7.78L450.27-7.78L450.27-7.78Q448.58-5.06 445.76-3.07L445.76-3.07L445.76-3.07Q439.62 1.28 431.49 1.28L431.49 1.28L431.49 1.28Q424.90 1.28 421.50-0.86L421.50-0.86L421.50-0.86Q418.11-3.01 418.11-6.27L418.11-6.27L418.11-6.27Q418.11-12.10 422.66-13.57L422.66-13.57L422.66-13.57Q423.94-14.02 425.89-14.02L425.89-14.02L425.89-14.02Q427.84-14.02 430.08-13.18L430.08-13.18L430.08-13.18Q429.06-10.56 429.06-8.19L429.06-8.19L429.06-8.19Q429.06-3.07 432.70-3.07L432.70-3.07L432.70-3.07Q435.07-3.07 437.02-4.80L437.02-4.80L437.02-4.80Q438.98-6.53 438.98-8.48L438.98-8.48L438.98-8.48Q438.98-10.43 437.73-11.84L437.73-11.84L437.73-11.84Q436.48-13.25 434.62-14.37L434.62-14.37L434.62-14.37Q432.77-15.49 430.62-16.58L430.62-16.58L430.62-16.58Q428.48-17.66 426.62-19.20L426.62-19.20L426.62-19.20Q422.27-22.72 422.27-28.35L422.27-28.35L422.27-28.35Q422.27-32 424.06-34.85L424.06-34.85L424.06-34.85Q425.86-37.70 428.74-39.62L428.74-39.62L428.74-39.62Q434.50-43.52 441.57-43.52L441.57-43.52L441.57-43.52Q448.64-43.52 452.06-41.41L452.06-41.41L452.06-41.41Q455.49-39.30 455.49-35.71L455.49-35.71L455.49-35.71Q455.49-32.58 453.06-30.59L453.06-30.59L453.06-30.59Q450.94-28.93 448.38-28.93L448.38-28.93L448.38-28.93Q445.82-28.93 444.03-29.57Z" fill="#ccc"></path></g></g><style>text {
  font-size: 64px;
  font-family: Arial Black;
  dominant-baseline: central;
  text-anchor: middle;
}</style></svg>